{"title":"Defloration - Lili Pinkerton","uid":7315626,"size":427649152,"categoryP":"porn","categoryS":"movies","magnet":"?xt=urn:btih:f913659ab767463cb2ab73d0e1d12af70ab837ed&amp;dn=Defloration+-+Lili+Pinkerton&amp;tr=udp%3A%2F%2Ftracker.openbittorrent.com%3A80&amp;tr=udp%3A%2F%2Fopen.demonii.com%3A1337&amp;tr=udp%3A%2F%2Ftracker.coppersurfer.tk%3A6969&amp;tr=udp%3A%2F%2Fexodus.desync.com%3A6969","seeders":0,"leechers":1,"uploader":"soulless123","files":2,"time":1338478237,"description":"Seeding Time 24/7\n\nDon't Forget To Say Thanks If You Like My Post\n\n\n\n-=Media Info=-\n\nFormat : AVI\nFormat/Info : Audio Video Interleave\nFile size : 408 MiB\nDuration : 31mn 36s\nOverall bit rate : 1 804 Kbps\n\nVideo\nID : 0\nFormat : MPEG-4 Visual\nFormat settings, BVOP : 1\nFormat settings, QPel : No\nFormat settings, GMC : No warppoints\nFormat settings, Matrix : Default (H.263)\nMuxing mode : Packed bitstream\nCodec ID : DX50\nCodec ID/Hint : DivX 5\nDuration : 31mn 36s\nBit rate : 1 672 Kbps\nWidth : 712 pixels\nHeight : 400 pixels\nDisplay aspect ratio : 16:9\nFrame rate : 25.000 fps\nColor space : YUV\nChroma subsampling : 40\nBit depth : 8 bits\nScan type : Progressive\nCompression mode : Lossy\nBits/(Pixel*Frame) : 0.235\nStream size : 378 MiB (93%)\nWriting library : DivX 6.8.3-6.8.4 (UTC 2008-06-07)\n\nAudio\nID : 1\nFormat : MPEG Audio\nFormat version : Version 1\nFormat profile : Layer 3\nCodec ID : 55\nCodec ID/Hint : MP3\nDuration : 31mn 36s\nBit rate mode : Constant\nBit rate : 128 Kbps\nChannel(s) : 2 channels\nSampling rate : 32.0 KHz\nCompression mode : Lossy\nStream size : 28.9 MiB (7%)\nAlignment : Split accross interleaves\nInterleave, duration : 500 ms (12.50 video frames)\nInterleave, preload duration : 750 ms\n\n-=Screen=-\n\n","torrent":{"xt":"urn:btih:f913659ab767463cb2ab73d0e1d12af70ab837ed","amp;dn":"Defloration+-+Lili+Pinkerton","amp;tr":["udp%3A%2F%2Ftracker.openbittorrent.com%3A80","udp%3A%2F%2Fopen.demonii.com%3A1337","udp%3A%2F%2Ftracker.coppersurfer.tk%3A6969","udp%3A%2F%2Fexodus.desync.com%3A6969"],"infoHash":"f913659ab767463cb2ab73d0e1d12af70ab837ed","infoHashBuffer":{"type":"Buffer","data":[249,19,101,154,183,103,70,60,178,171,115,208,225,209,42,247,10,184,55,237]},"announce":[],"urlList":[]}}